<svg width="65" height="65" viewBox="0 0 65 65" fill="none" xmlns="http://www.w3.org/2000/svg">
<g id="premium-quality 1" clip-path="url(#clip0_146_3060)">
<g id="Group">
<g id="Group_2">
<path id="Vector" d="M15.9447 36.5387L8.104 58.7718L15.9925 58.6951L25.7211 36.5387H15.9447Z" fill="#80AAFF"/>
<path id="Vector_2" d="M25.7206 36.5387L19.5984 59.9338L25.7643 65.0003L32.4996 45.2937V36.5387H25.7206Z" fill="#80AAFF"/>
<path id="Vector_3" d="M23.592 36.5387L15.9929 58.6951L18.0672 58.675L19.5993 59.9338L27.6233 36.5387H23.592Z" fill="#EAF1FF"/>
</g>
<g id="Group_3">
<path id="Vector_4" d="M49.056 36.5387L56.8967 58.7718L49.0082 58.6951L39.2795 36.5387H49.056Z" fill="#6680FF"/>
<path id="Vector_5" d="M39.2795 36.5387L45.4017 59.9338L39.2358 65.0003L32.5005 45.2937V36.5387H39.2795Z" fill="#6680FF"/>
<path id="Vector_6" d="M41.4085 36.5387L49.0076 58.6951L46.9333 58.675L45.4012 59.9338L37.3772 36.5387H41.4085Z" fill="#B3CCFF"/>
</g>
<g id="Group_4">
<g id="Group_5">
<path id="Vector_7" d="M32.4992 1.90625L31.1433 23.0483L32.4992 43.3854C43.9534 43.3854 53.2388 34.1 53.2388 22.6459C53.2388 11.1917 43.9534 1.90625 32.4992 1.90625Z" fill="#EAF1FF"/>
<path id="Vector_8" d="M11.7598 22.6459C11.7598 34.1 21.0452 43.3854 32.4994 43.3854V1.90625C21.0452 1.90625 11.7598 11.1917 11.7598 22.6459Z" fill="#F9F9F9"/>
</g>
<g id="Group_6">
<path id="Vector_9" d="M55.1454 22.6462C55.1454 10.159 44.9863 0 32.4992 0L31.1433 1.35585L32.4992 3.8132C42.8837 3.8132 51.3322 12.2616 51.3322 22.6462C51.3322 33.0307 42.8837 41.4791 32.4992 41.4791L31.1433 43.3857L32.4992 45.2923C44.9863 45.2923 55.1454 35.1333 55.1454 22.6462Z" fill="#FDAE02"/>
<path id="Vector_10" d="M32.4996 41.4791C22.1151 41.4791 13.6667 33.0307 13.6667 22.6462C13.6667 12.2616 22.1151 3.8132 32.4996 3.8132V0C20.0125 0 9.85352 10.159 9.85352 22.6462C9.85352 35.1333 20.0125 45.2923 32.4996 45.2923V41.4791Z" fill="#FDCB02"/>
</g>
</g>
<g id="Group_7">
<path id="Vector_11" d="M43.8973 15.0947L37.9609 17.0357L32.5 12.4161L31.1443 21.6925L32.5 31.2679H43.8973V15.0947Z" fill="#FD9002"/>
<path id="Vector_12" d="M32.5002 12.4161L27.0394 17.0357L21.103 15.0947V31.2679H32.5002V12.4161Z" fill="#FDAE02"/>
</g>
</g>
</g>
<defs>
<clipPath id="clip0_146_3060">
<rect width="65" height="65" fill="white"/>
</clipPath>
</defs>
</svg>
